<svg width="1024" height="1024" viewBox="0 0 1024 1024" fill="none" xmlns="http://www.w3.org/2000/svg">
<g clip-path="url(#clip0_9_10)">
<mask id="path-1-inside-1_9_10" fill="white">
<path fill-rule="evenodd" clip-rule="evenodd" d="M238.516 696.95C175.399 731.178 128.85 793.066 116.181 867.982L47.3539 1274.98C22.5867 1421.44 135.458 1555 283.994 1555H740.006C888.543 1555 1001.41 1421.44 976.647 1274.98L907.819 867.982C895.105 792.802 848.274 730.743 784.819 696.59C716.781 770.031 619.509 816 511.5 816C403.668 816 306.538 770.181 238.516 696.95Z"/>
</mask>
<path fill-rule="evenodd" clip-rule="evenodd" d="M238.516 696.95C175.399 731.178 128.85 793.066 116.181 867.982L47.3539 1274.98C22.5867 1421.44 135.458 1555 283.994 1555H740.006C888.543 1555 1001.41 1421.44 976.647 1274.98L907.819 867.982C895.105 792.802 848.274 730.743 784.819 696.59C716.781 770.031 619.509 816 511.5 816C403.668 816 306.538 770.181 238.516 696.95Z" fill="#E0E0E0" fill-opacity="0.1"/>
<path d="M116.181 867.982L118.153 868.315L118.153 868.315L116.181 867.982ZM238.516 696.95L239.981 695.589L238.926 694.453L237.562 695.192L238.516 696.95ZM47.3539 1274.98L45.3819 1274.65L45.3819 1274.65L47.3539 1274.98ZM976.647 1274.98L974.675 1275.32L974.675 1275.32L976.647 1274.98ZM907.819 867.982L905.847 868.315L905.847 868.315L907.819 867.982ZM784.819 696.59L785.766 694.829L784.403 694.095L783.351 695.231L784.819 696.59ZM118.153 868.315C130.717 794.024 176.876 732.653 239.469 698.708L237.562 695.192C173.923 729.704 126.984 792.107 114.209 867.648L118.153 868.315ZM49.3259 1275.32L118.153 868.315L114.209 867.648L45.3819 1274.65L49.3259 1275.32ZM283.994 1553C136.695 1553 24.7651 1420.55 49.3259 1275.32L45.3819 1274.65C20.4083 1422.33 134.22 1557 283.994 1557V1553ZM740.006 1553H283.994V1557H740.006V1553ZM974.675 1275.32C999.235 1420.55 887.305 1553 740.006 1553V1557C889.781 1557 1003.59 1422.33 978.619 1274.65L974.675 1275.32ZM905.847 868.315L974.675 1275.32L978.619 1274.65L909.791 867.648L905.847 868.315ZM783.871 698.351C846.8 732.221 893.24 793.763 905.847 868.315L909.791 867.648C896.971 791.841 849.747 729.265 785.766 694.829L783.871 698.351ZM783.351 695.231C715.676 768.28 618.929 814 511.5 814V818C620.089 818 717.885 771.782 786.286 697.949L783.351 695.231ZM511.5 814C404.247 814 307.641 768.43 239.981 695.589L237.05 698.311C305.435 771.932 403.089 818 511.5 818V814Z" fill="black" fill-opacity="0.3" mask="url(#path-1-inside-1_9_10)"/>
<circle cx="511.5" cy="443.5" r="372.5" fill="#C4C4C4" fill-opacity="0.1"/>
<circle cx="511.5" cy="443.5" r="371.5" stroke="black" stroke-opacity="0.3" stroke-width="2"/>
<circle cx="404" cy="376" r="45" fill="#C4C4C4" fill-opacity="0.5"/>
<circle cx="623" cy="376" r="45" fill="#C4C4C4" fill-opacity="0.5"/>
<path d="M341.428 579.339C337.197 575.79 330.889 576.341 327.339 580.572C323.79 584.803 324.341 591.111 328.572 594.661L341.428 579.339ZM695.441 593.68C699.131 589.57 698.79 583.248 694.68 579.559C690.57 575.869 684.248 576.21 680.559 580.32L695.441 593.68ZM328.572 594.661C374.135 632.892 444.07 656.393 512.857 658.808C581.582 661.221 651.509 642.619 695.441 593.68L680.559 580.32C642.047 623.219 578.974 641.117 513.559 638.82C448.208 636.526 382.865 614.108 341.428 579.339L328.572 594.661Z" fill="black" fill-opacity="0.2"/>
</g>
<defs>
<clipPath id="clip0_9_10">
<rect width="1024" height="1024" fill="white"/>
</clipPath>
</defs>
</svg>
